cd-info version 0.82 i686-pc-linux-gnu
Copyright (c) 2003, 2004, 2005, 2007, 2008 R. Bernstein
This is free software; see the source for copying conditions.
There is NO warranty; not even for MERCHANTABILITY or FITNESS FOR A
PARTICULAR PURPOSE.
CD location   : /dev/cdrom
CD driver name: GNU/Linux
   access mode: ioctl

Vendor                      : HL-DT-ST
Model                       : DVDRAM GH22NS40 
Revision                    : NL01
Hardware                                  : CD-ROM or DVD
Can eject                                 : Yes
Can close tray                            : Yes
Can disable manual eject                  : Yes
Can select juke-box disc                  : No

Can set drive speed                       : No
Can read multiple sessions (e.g. PhotoCD) : Yes
Can hard reset device                     : Yes

Reading....
  Can read Mode 2 Form 1                  : Yes
  Can read Mode 2 Form 2                  : Yes
  Can read (S)VCD (i.e. Mode 2 Form 1/2)  : Yes
  Can read C2 Errors                      : Yes
  Can read IRSC                           : Yes
  Can read Media Channel Number (or UPC)  : Yes
  Can play audio                          : Yes
  Can read CD-DA                          : Yes
  Can read CD-R                           : Yes
  Can read CD-RW                          : Yes
  Can read DVD-ROM                        : Yes

Writing....
  Can write CD-RW                         : Yes
  Can write DVD-R                         : Yes
  Can write DVD-RAM                       : Yes
  Can write DVD-RW                        : No
  Can write DVD+RW                        : No
__________________________________

Disc mode is listed as: CD-DA
CD-ROM Track List (1 - 13)
  #: MSF       LSN    Type   Green? Copy? Channels Premphasis?
  1: 00:02:00  000000 audio  false  no    2        no
  2: 03:26:27  015327 audio  false  no    2        no
  3: 07:04:50  031700 audio  false  no    2        no
  4: 14:01:12  062937 audio  false  no    2        no
  5: 19:36:35  088085 audio  false  no    2        no
  6: 24:17:02  109127 audio  false  no    2        no
  7: 30:07:72  135447 audio  false  no    2        no
  8: 35:02:02  157502 audio  false  no    2        no
  9: 38:39:32  173807 audio  false  no    2        no
 10: 42:33:72  191397 audio  false  no    2        no
 11: 45:42:57  205557 audio  false  no    2        no
 12: 51:22:35  231035 audio  false  no    2        no
 13: 61:11:22  275197 data   false  no   
170: 73:47:31  331906 leadout (744 MB raw, 744 MB formatted)
Media Catalog Number (MCN): 0724349692503
Last CD Session LSN: 275197
audio status: no status
volume level port 0: 255 (0..255) 100 (0..100)
volume level port 1: 255 (0..255) 100 (0..100)
volume level port 2:   0 (0..255)   0 (0..100)
volume level port 3:   0 (0..255)   0 (0..100)
